<svg width="26" height="26" viewBox="0 0 26 26" fill="none" xmlns="http://www.w3.org/2000/svg">
<path d="M9.66667 7C9.11438 7 8.66667 6.55228 8.66667 6V5C8.66667 4.44772 9.11438 4 9.66667 4H25C25.5523 4 26 4.44772 26 5V6C26 6.55228 25.5523 7 25 7H9.66667Z" fill="#8B2860"/>
<path d="M0 13.5C0 14.0523 0.447716 14.5 1 14.5H25C25.5523 14.5 26 14.0523 26 13.5V12.5C26 11.9477 25.5523 11.5 25 11.5H1C0.447715 11.5 0 11.9477 0 12.5V13.5Z" fill="#8B2860"/>
<path d="M8.66667 21C8.66667 21.5523 9.11438 22 9.66667 22H25C25.5523 22 26 21.5523 26 21V20C26 19.4477 25.5523 19 25 19H9.66667C9.11438 19 8.66667 19.4477 8.66667 20V21Z" fill="#8B2860"/>
</svg>
